<?xml version="1.0" encoding="utf-8"?>
<!-- Generator: Adobe Illustrator 25.4.1, SVG Export Plug-In . SVG Version: 6.00 Build 0)  -->
<svg version="1.1" id="Layer_1" xmlns="http://www.w3.org/2000/svg" xmlns:xlink="http://www.w3.org/1999/xlink" x="0px" y="0px"
	 viewBox="0 0 470.5 132.5" style="enable-background:new 0 0 470.5 132.5;" xml:space="preserve">
<style type="text/css">
	.st0{fill:#FFFFFF;}
	.st1{fill:url(#SVGID_1_);}
	.st2{clip-path:url(#SVGID_00000120546418513412797350000016666248369066228653_);fill:#00ADEE;}
	.st3{clip-path:url(#SVGID_00000120546418513412797350000016666248369066228653_);}
	.st4{fill:#00ADEE;}
	.st5{clip-path:url(#SVGID_00000044868334469826114860000009978179142499234183_);fill:#FFFFFF;}
	.st6{fill:#26A9E0;}
</style>
<path class="st0" d="M70.2,117H36c-13.2,0-23.9-10.7-23.9-23.9v0c0-13.2,10.7-23.9,23.9-23.9h34.2c13.2,0,23.9,10.7,23.9,23.9v0
	C94.2,106.3,83.5,117,70.2,117z"/>
<path class="st0" d="M75.9,117L75.9,117C62.7,117,52,106.3,52,93.1v0c0-13.2,10.7-23.9,23.9-23.9h0c13.2,0,23.9,10.7,23.9,23.9v0
	C99.8,106.3,89.1,117,75.9,117z"/>
<path class="st0" d="M74,84H52c-13.2,0-23.9-10.7-23.9-23.9v0c0-13.2,10.7-23.9,23.9-23.9H74c13.2,0,23.9,10.7,23.9,23.9v0
	C97.9,73.3,87.2,84,74,84z"/>
<path class="st0" d="M423.6,14.6c0.4,2.4,0.7,4.8,0.9,7.2c0.1,0.7-0.3,1.4-0.9,1.7V117c26-0.7,46.9-23.3,46.9-51.2
	C470.5,37.9,449.6,15.2,423.6,14.6z"/>
<rect x="69.4" y="14.5" class="st0" width="355.1" height="11.6"/>
<path class="st0" d="M90,73.2H43.1c-4.3,0-7.9-3.5-7.9-7.9v0c0-4.3,3.5-7.9,7.9-7.9H90c4.3,0,7.9,3.5,7.9,7.9v0
	C97.9,69.6,94.4,73.2,90,73.2z"/>
<path class="st0" d="M101,38.1H69.6c-6.5,0-11.8-5.3-11.8-11.8v0c0-6.5,5.3-11.8,11.8-11.8H101c6.5,0,11.8,5.3,11.8,11.8v0
	C112.8,32.8,107.5,38.1,101,38.1z"/>
<path class="st0" d="M86.3,51.9H48.9c-4.3,0-7.9-3.5-7.9-7.9v0c0-4.3,3.5-7.9,7.9-7.9h37.4c4.3,0,7.9,3.5,7.9,7.9v0
	C94.2,48.4,90.6,51.9,86.3,51.9z"/>
<linearGradient id="SVGID_1_" gradientUnits="userSpaceOnUse" x1="-32.7398" y1="65.7914" x2="408.6904" y2="65.7914" gradientTransform="matrix(1.0221 0 0 1 65.6335 0)">
	<stop  offset="0.4731" style="stop-color:#231F20"/>
	<stop  offset="0.566" style="stop-color:#1B3D4C;stop-opacity:0.8237"/>
	<stop  offset="0.7185" style="stop-color:#106A8D;stop-opacity:0.5342"/>
	<stop  offset="0.8469" style="stop-color:#078BBD;stop-opacity:0.2905"/>
	<stop  offset="0.9446" style="stop-color:#029FDB;stop-opacity:0.1051"/>
	<stop  offset="1" style="stop-color:#00A7E6;stop-opacity:0"/>
</linearGradient>
<path class="st1" d="M410.8,105.5H148.4c-19.7,0-35.6-16-35.6-35.6v-8.1c0-19.7,16-35.6,35.6-35.6h262.4c19.7,0,35.6,16,35.6,35.6
	v8.1C446.5,89.5,430.5,105.5,410.8,105.5z"/>
<g>
	<g>
		<defs>
			<rect id="SVGID_00000131356100597902750450000004444370354948962734_" x="22.1" y="25.9" width="546.2" height="79.9"/>
		</defs>
		<clipPath id="SVGID_00000012456990099546066030000005784915983502937532_">
			<use xlink:href="#SVGID_00000131356100597902750450000004444370354948962734_"  style="overflow:visible;"/>
		</clipPath>
		<path style="clip-path:url(#SVGID_00000012456990099546066030000005784915983502937532_);fill:#00ADEE;" d="M45.9,94.6
			c2.7,0,5.1,2.4,5.1,5.3v0.6c0,2.9-2.3,5.3-5.1,5.3H27.1c-2.7,0-5.1-2.4-5.1-5.3V100c0-2.9,2.3-5.3,5.1-5.3H45.9"/>
		<path style="clip-path:url(#SVGID_00000012456990099546066030000005784915983502937532_);" d="M147,136.9c2.7,0,5.1,2.4,5.1,5.3
			v0.6c0,2.9-2.3,5.3-5.1,5.3h-18.8c-2.7,0-5.1-2.4-5.1-5.3v-0.6c0-2.9,2.3-5.3,5.1-5.3H147"/>
		<path style="clip-path:url(#SVGID_00000012456990099546066030000005784915983502937532_);" d="M147,136.9c2.7,0,5.1,2.4,5.1,5.3
			v0.6c0,2.9-2.3,5.3-5.1,5.3h-18.8c-2.7,0-5.1-2.4-5.1-5.3v-0.6c0-2.9,2.3-5.3,5.1-5.3H147"/>
		<path style="clip-path:url(#SVGID_00000012456990099546066030000005784915983502937532_);fill:#00ADEE;" d="M140.7,39.9
			L140.7,39.9c-11.7,0-21.1,9.8-21.1,22.1v8.8c0,12.3,9.4,22.1,21.1,22.1s21.1-9.8,21.1-22.1V62C161.8,49.9,152.2,39.9,140.7,39.9z
			 M147.9,60.8c2.7,0,5.1,2.5,5.1,5.3v0.6c0,2.9-2.3,5.3-5.1,5.3h-15.8c-2.7,0-5.1-2.5-5.1-5.3v-0.6c0-2.9,2.3-5.3,5.1-5.3H147.9z
			 M146.6,25.9c20.9,0,37.9,17.8,37.9,39.8s-17,39.8-37.9,39.8H62.7c-2.9,0-5.5-2.5-5.5-5.7c0-3.1,2.3-5.7,5.5-5.7h19.5
			c2.9,0,5.5-2.5,5.5-5.7c0-3.1-2.3-5.7-5.5-5.7H78c-2.9,0-5.5-2.5-5.5-5.7c0-3.1,2.3-5.7,5.5-5.7h13.1c2.9,0,5.3-2.7,5.5-5.7
			c0-3.1-2.3-5.7-5.5-5.7H45.5c-2.9,0-5.5-2.5-5.5-5.7c0-3.3,2.3-5.7,5.5-5.7h33.6c2.9,0,5.3-2.7,5.5-5.7c0-3.1-2.3-5.7-5.5-5.7
			h-7.6c-2.9,0-5.6-2.5-5.5-5.7c0.2-5.4,4.3-4.9,3.2-4.9C68.2,25.9,146.6,25.9,146.6,25.9"/>
	</g>
	<path class="st4" d="M59.4,71.1c2.7,0,5,2.5,5,5.4v0.6c0,2.9-2.3,5.4-5,5.4H48c-2.7,0-5-2.5-5-5.4v-0.6c0-2.9,2.3-5.4,5-5.4H59.4"
		/>
</g>
<g>
	<g>
		<defs>
			<rect id="SVGID_00000019650011695248970330000016179088345011901858_" x="51.3" y="43.3" width="314.2" height="44.1"/>
		</defs>
		<clipPath id="SVGID_00000029737352306927893990000000369265798389002133_">
			<use xlink:href="#SVGID_00000019650011695248970330000016179088345011901858_"  style="overflow:visible;"/>
		</clipPath>
		<path style="clip-path:url(#SVGID_00000029737352306927893990000000369265798389002133_);fill:#FFFFFF;" d="M347.9,43.8
			c0,0,1.9,0,2.7,0.6c0,0,0.8,0.6,1.5,2.4l13.4,39.1c0,0,0.2,0.4,0,0.9c0,0-0.1,0.5-0.8,0.5h-5.7c0,0-0.7,0-1.1-0.1
			c0,0-0.4-0.1-0.7-0.8l-2.7-8.4h-15.7l-2.6,8.3c0,0-0.2,0.6-0.6,0.8c0,0-0.3,0.2-1.1,0.2h-5.7c0,0-0.7,0-0.9-0.5c0,0-0.2-0.4,0-0.9
			l13.4-39.1c0,0,0.3-0.9,0.7-1.5c0,0,0.3-0.6,0.8-0.9c0,0,0.4-0.3,1.1-0.4c0,0,0.6-0.1,1.5-0.1H347.9 M346.6,52.1h-0.3l-2.6,8.5
			l-3.3,10.6h11.9l-3.3-10.3L346.6,52.1z"/>
	</g>
	<path class="st0" d="M236.4,43.6c0,0,0.9,0,1.1,0.2c0,0,0.3,0.2,0.3,1.1V61h19.2V44.8c0,0,0-0.8,0.3-1c0,0,0.3-0.2,1.1-0.2h4.7
		c0,0,0.9,0,1.1,0.2c0,0,0.2,0.2,0.2,1.1v40.7c0,0,0,0.9-0.2,1.1c0,0-0.2,0.2-1.1,0.2h-4.7c0,0-0.8,0-1.1-0.2c0,0-0.3-0.2-0.3-1
		V67.4h-19.2v18.2c0,0,0,0.9-0.3,1.1c0,0-0.3,0.2-1.1,0.2h-4.7c0,0-0.7,0-1-0.2c0,0-0.3-0.2-0.3-1V45.1c0,0,0-0.8,0.3-1
		c0,0,0.3-0.2,1-0.2h4.7V43.6"/>
	<path class="st0" d="M223.8,43.6c0,0,0.7,0,0.9,0.2c0,0,0.2,0.2,0.2,0.9V49c0,0,0,0.7-0.2,0.9c0,0-0.2,0.2-0.9,0.2h-11.7v35.4
		c0,0,0,0.9-0.2,1.1c0,0-0.2,0.2-1.1,0.2h-4.8c0,0-0.8,0-1.1-0.2c0,0-0.3-0.2-0.3-1V50.2H193c0,0-0.7,0-0.9-0.2c0,0-0.2-0.2-0.2-0.9
		v-4.3c0,0,0-0.7,0.2-0.9c0,0,0.2-0.2,0.9-0.2H223.8"/>
	<path class="st0" d="M301.3,43.6c0,0,0.8,0,1,0.3c0,0,0.2,0.3,0.2,1.1V49c0,0,0,0.8-0.2,1.1c0,0-0.2,0.2-1,0.2h-16.4
		c0,0-2.4,0-3.3,1c0,0-0.9,1-0.9,3V61h18.7c0,0,0.8,0,1,0.3c0,0,0.2,0.3,0.2,1.1v3.4c0,0,0,0.8-0.2,1.1c0,0-0.2,0.3-1,0.3h-18.7v9
		c0,0,0,2,1,3c0,0,1,1,3.3,1h16.9c0,0,0.9,0,1.1,0.3c0,0,0.2,0.3,0.2,1.1v3.8c0,0,0,0.7-0.2,1c0,0-0.2,0.3-1,0.3h-17.7
		c0,0-3.3,0-5.4-0.9c0,0-2.1-0.9-3.4-2.5c0,0-1.2-1.6-1.8-3.5c0,0-0.4-2-0.4-4.2V54.8c0,0,0-2.1,0.6-4.2c0,0,0.6-2,1.9-3.6
		c0,0,1.3-1.6,3.5-2.5c0,0,2.1-0.9,5.1-0.9H301.3"/>
	<path class="st0" d="M318.3,43.6c0,0,0.9,0,1.1,0.2c0,0,0.3,0.2,0.3,1.1v40.7c0,0,0,0.9-0.3,1.1c0,0-0.3,0.2-1.1,0.2h-4.7
		c0,0-0.8,0-1.1-0.2c0,0-0.3-0.2-0.3-1V44.8c0,0,0-0.8,0.3-1c0,0,0.3-0.2,1.1-0.2H318.3"/>
</g>
<circle class="st6" cx="418.1" cy="66.2" r="40.1"/>
<g>
	<g>
		<g>
			<path class="st0" d="M428.9,76.2V52.4h3.7l9.7,15.7V52.4h4.6v23.8h-3.7l-9.7-15.7v15.7H428.9z"/>
		</g>
	</g>
	<g>
		<g>
			<path class="st0" d="M396.3,76.4c-1.4,0-2.6-0.2-3.6-0.5c-1-0.3-1.9-0.9-2.6-1.8c-0.7-0.9-1.3-2.1-1.6-3.7
				c-0.4-1.6-0.5-3.7-0.5-6.2c0-2.5,0.2-4.5,0.6-6.1c0.4-1.6,0.9-2.8,1.7-3.7c0.7-0.9,1.6-1.5,2.7-1.8c1-0.3,2.2-0.5,3.5-0.5
				c1,0,2,0.1,2.9,0.2c0.9,0.1,1.7,0.3,2.5,0.4c0.7,0.2,1.3,0.3,1.9,0.5V57c-0.4-0.1-0.9-0.2-1.5-0.3c-0.6-0.1-1.4-0.2-2.2-0.2
				c-0.8-0.1-1.7-0.1-2.6-0.1c-0.9,0-1.6,0.1-2.2,0.3c-0.6,0.2-1.1,0.6-1.5,1.1c-0.4,0.5-0.6,1.3-0.8,2.4s-0.3,2.4-0.3,4
				c0,1.6,0.1,2.9,0.2,3.9c0.2,1,0.4,1.8,0.8,2.4c0.4,0.6,0.8,1,1.5,1.2c0.6,0.2,1.4,0.3,2.3,0.3c1.6,0,2.9,0,3.9-0.1
				c1-0.1,1.8-0.1,2.4-0.2v3.7c-0.6,0.2-1.2,0.4-1.9,0.5c-0.7,0.1-1.5,0.2-2.4,0.3C398.4,76.4,397.4,76.4,396.3,76.4z"/>
		</g>
	</g>
	<g>
		<g>
			<path class="st0" d="M416.1,76.6c-1.6,0-3-0.2-4.2-0.5c-1.2-0.3-2.2-0.9-3-1.7c-0.8-0.8-1.4-2.1-1.8-3.7
				c-0.4-1.6-0.6-3.7-0.6-6.2c0-2.6,0.2-4.6,0.6-6.2c0.4-1.6,1-2.8,1.8-3.7c0.8-0.9,1.8-1.4,3-1.8c1.2-0.3,2.6-0.5,4.2-0.5
				s3,0.2,4.2,0.5c1.2,0.3,2.2,0.9,3,1.8c0.8,0.9,1.4,2.1,1.8,3.7c0.4,1.6,0.6,3.7,0.6,6.2c0,2.6-0.2,4.6-0.6,6.2
				c-0.4,1.6-1,2.8-1.8,3.7c-0.8,0.8-1.8,1.4-3,1.7C419.1,76.5,417.7,76.6,416.1,76.6z M416.1,72.3c0.9,0,1.7-0.1,2.4-0.3
				c0.6-0.2,1.1-0.6,1.5-1.1c0.4-0.5,0.6-1.3,0.8-2.4c0.2-1,0.3-2.3,0.3-4c0-1.7-0.1-3.1-0.3-4.1c-0.2-1-0.4-1.8-0.8-2.4
				c-0.4-0.5-0.9-0.9-1.5-1.1c-0.6-0.2-1.4-0.3-2.4-0.3c-0.9,0-1.7,0.1-2.3,0.3c-0.6,0.2-1.1,0.6-1.5,1.1c-0.4,0.5-0.7,1.3-0.8,2.4
				c-0.2,1-0.3,2.4-0.3,4.1c0,1.6,0.1,3,0.2,4c0.2,1,0.4,1.8,0.8,2.4c0.4,0.5,0.9,0.9,1.5,1.1C414.4,72.2,415.2,72.3,416.1,72.3z"/>
		</g>
	</g>
</g>
<rect x="79.2" y="105.5" class="st0" width="349.8" height="11.6"/>
</svg>
